<svg width="60" height="32" viewBox="0 0 60 32" fill="none" xmlns="http://www.w3.org/2000/svg">
<rect width="60" height="32" rx="16" fill="white"/>
<circle cx="44" cy="16" r="14" fill="#8B8B8B"/>
<g clip-path="url(#clip0_5447_25626)">
<path d="M15.9988 22.7622C15.6424 22.7622 15.3535 23.051 15.3535 23.4075V25.3557C15.3535 25.7122 15.6424 26.0011 15.9988 26.0011C16.3553 26.0011 16.6441 25.7122 16.6441 25.3557V23.4075C16.6441 23.051 16.3553 22.7622 15.9988 22.7622Z" fill="#8B8B8B"/>
<path d="M15.9988 9.23981C16.3553 9.23981 16.6441 8.95097 16.6441 8.5945V6.64653C16.6441 6.29006 16.3553 6.00122 15.9988 6.00122C15.6424 6.00122 15.3535 6.29006 15.3535 6.64653V8.59459C15.3535 8.95097 15.6424 9.23981 15.9988 9.23981Z" fill="#8B8B8B"/>
<path d="M10.3069 20.7817L8.92889 22.1591C8.67679 22.4111 8.6767 22.8196 8.92863 23.0716C9.05468 23.1978 9.21988 23.2607 9.38508 23.2607C9.55019 23.2607 9.7153 23.1978 9.84127 23.0719L11.2193 21.6945C11.4714 21.4425 11.4715 21.034 11.2196 20.782C10.9675 20.5298 10.5588 20.5297 10.3069 20.7817Z" fill="#8B8B8B"/>
<path d="M21.2362 11.4084C21.4013 11.4084 21.5665 11.3455 21.6924 11.2196L23.0704 9.84223C23.3225 9.59022 23.3226 9.1817 23.0706 8.92968C22.8185 8.67741 22.4099 8.6775 22.158 8.92942L20.78 10.3068C20.5279 10.5588 20.5278 10.9673 20.7797 11.2194C20.9058 11.3455 21.071 11.4084 21.2362 11.4084Z" fill="#8B8B8B"/>
<path d="M9.23902 16.0003C9.23902 15.6438 8.95018 15.355 8.59371 15.355H6.64531C6.28884 15.355 6 15.6438 6 16.0003C6 16.3568 6.28884 16.6456 6.64531 16.6456H8.59371C8.95009 16.6456 9.23902 16.3567 9.23902 16.0003Z" fill="#8B8B8B"/>
<path d="M25.3546 15.355H23.4056C23.0491 15.355 22.7603 15.6438 22.7603 16.0003C22.7603 16.3568 23.0491 16.6456 23.4056 16.6456H25.3546C25.711 16.6456 25.9999 16.3568 25.9999 16.0003C25.9999 15.6438 25.711 15.355 25.3546 15.355Z" fill="#8B8B8B"/>
<path d="M10.3065 11.2193C10.4325 11.3454 10.5977 11.4084 10.7629 11.4084C10.928 11.4084 11.0932 11.3454 11.2191 11.2194C11.4712 10.9674 11.4712 10.5588 11.2192 10.3069L9.84187 8.92953C9.58977 8.67743 9.18116 8.67752 8.92932 8.92945C8.67722 9.18146 8.67722 9.59007 8.92923 9.842L10.3065 11.2193Z" fill="#8B8B8B"/>
<path d="M21.6934 20.7818C21.4413 20.5298 21.0327 20.5297 20.7809 20.7817C20.5288 21.0338 20.5288 21.4424 20.7808 21.6944L22.1581 23.0717C22.2841 23.1978 22.4492 23.2608 22.6144 23.2608C22.7795 23.2608 22.9447 23.1978 23.0707 23.0718C23.3228 22.8198 23.3228 22.4112 23.0708 22.1592L21.6934 20.7818Z" fill="#8B8B8B"/>
<path d="M15.9997 10.1907C12.7962 10.1907 10.1899 12.7969 10.1899 16.0004C10.1899 19.2039 12.7962 21.8102 15.9997 21.8102C19.2032 21.8102 21.8094 19.2039 21.8094 16.0004C21.8094 12.7969 19.2032 10.1907 15.9997 10.1907ZM15.9997 20.5197C13.5078 20.5197 11.4806 18.4924 11.4806 16.0005C11.4806 13.5086 13.5078 11.4813 15.9997 11.4813C18.4915 11.4813 20.5187 13.5086 20.5187 16.0004C20.5187 18.4923 18.4915 20.5197 15.9997 20.5197Z" fill="#8B8B8B"/>
</g>
<defs>
<clipPath id="clip0_5447_25626">
<rect width="20" height="20" fill="white" transform="translate(6 6)"/>
</clipPath>
</defs>
</svg>
