<svg width="70" height="73" viewBox="0 0 70 73" fill="none" xmlns="http://www.w3.org/2000/svg">
<circle cx="35" cy="35" r="35" fill="#92A234"/>
<g clip-path="url(#clip0_1_840)">
<mask id="mask0_1_840" style="mask-type:alpha" maskUnits="userSpaceOnUse" x="19" y="55" width="33" height="26">
<path fill-rule="evenodd" clip-rule="evenodd" d="M46.9316 60.2364C45.7202 57.6669 43.1065 55.8887 40.0775 55.8887C38.8874 55.8887 37.7614 56.1632 36.7594 56.6523C36.1946 56.1758 35.4648 55.8887 34.6679 55.8887C33.2498 55.8887 32.0441 56.7982 31.6022 58.0657C30.4977 58.1466 29.4955 58.596 28.7181 59.2915C28.3751 59.1893 28.0117 59.1344 27.6355 59.1344C26.1052 59.1344 24.7869 60.0422 24.1897 61.3486C21.5526 61.7098 19.521 63.9716 19.521 66.7079C19.521 69.6955 21.943 72.1175 24.9306 72.1175C25.3178 72.1175 25.6955 72.0768 26.0596 71.9995C26.5436 76.9248 30.6973 80.7729 35.7498 80.7729C40.4016 80.7729 44.2914 77.5111 45.257 73.1499C45.5095 73.1826 45.7669 73.1994 46.0282 73.1994C49.3147 73.1994 51.9788 70.5353 51.9788 67.2488C51.9788 65.3419 51.0818 63.6444 49.6867 62.5554C49.3269 61.3161 48.248 60.3826 46.9316 60.2364Z" fill="white"/>
</mask>
<g mask="url(#mask0_1_840)">
<circle cx="35" cy="35" r="35" fill="#FFFFF1"/>
</g>
</g>
<path d="M39.4892 36.2493C38.6984 37.004 37.8645 38.0256 37.1066 39.3957C36.3577 36.6996 35.4138 34.7231 34.4596 33.2761C38.8379 18.6894 17.5 18.1667 17.5 18.1667C17.5 18.1667 18.1229 36.3975 29.2667 35.9789C29.244 34.7582 29.0545 33.5239 28.789 32.3665C28.6154 31.6119 28.4089 30.8923 28.1956 30.2282C27.4831 28.0255 26.6787 26.4619 26.6787 26.4619C27.491 27.5503 28.2104 28.5889 28.8457 29.5652C31.0321 32.9197 32.2256 35.5287 32.7804 36.9067C34.1499 39.8403 35.3797 44.6656 35.3797 52.5512C35.3797 53.4438 36.107 54.1667 36.9988 54.1667C37.8928 54.1667 38.6189 53.4438 38.6189 52.5512C38.6189 49.9954 38.4953 47.7214 38.2718 45.6928C38.788 43.2174 39.5674 41.4604 40.3741 40.2159C40.904 39.2079 41.8808 37.4814 43.1969 35.7187C44.369 34.1507 45.8144 32.5532 47.4493 31.4128C47.4493 31.4128 44.0967 35.1134 43.88 38.7361C53.1403 39.218 53.5 24.6902 53.5 24.6902C53.5 24.6902 36.5529 25.2672 39.4892 36.2493Z" fill="#FFFFF1"/>
<defs>
<clipPath id="clip0_1_840">
<rect width="35.8333" height="16.6667" fill="white" transform="translate(17.5 55.8333)"/>
</clipPath>
</defs>
</svg>
